<svg id="Layer_1" enable-background="new 0 0 512 512" height="512" viewBox="0 0 512 512" width="512" xmlns="http://www.w3.org/2000/svg"><g id="XMLID_761_"><g id="XMLID_1219_"><path id="XMLID_1469_" d="m283 138.486c0-29.776-24.224-54-54-54s-54 24.224-54 54 24.224 54 54 54 54-24.224 54-54zm-88 0c0-18.748 15.252-34 34-34s34 15.252 34 34-15.252 34-34 34-34-15.252-34-34z"/><path id="XMLID_1605_" d="m141.748 267.79c12.849-6.547 22.379-17.706 26.836-31.42 4.456-13.715 3.305-28.345-3.242-41.193-6.547-12.849-17.706-22.379-31.42-26.836-13.716-4.457-28.345-3.305-41.193 3.242-12.849 6.547-22.379 17.706-26.836 31.42-4.456 13.715-3.305 28.345 3.242 41.193 6.547 12.849 17.706 22.379 31.42 26.836 5.492 1.784 11.129 2.669 16.74 2.669 8.403.001 16.748-1.985 24.453-5.911zm-35.013-15.779c-8.634-2.805-15.659-8.805-19.781-16.894s-4.847-17.299-2.041-25.933c2.805-8.634 8.805-15.659 16.894-19.781 4.851-2.472 10.104-3.722 15.395-3.722 3.532 0 7.082.558 10.539 1.681 8.634 2.805 15.659 8.805 19.781 16.894s4.847 17.299 2.041 25.933c-2.805 8.634-8.805 15.659-16.894 19.781-8.09 4.121-17.3 4.846-25.934 2.041z"/><path id="XMLID_1609_" d="m128.188 394.755c9.564 6.948 20.664 10.293 31.667 10.293 16.712 0 33.204-7.715 43.756-22.239 8.478-11.669 11.904-25.94 9.647-40.186s-9.925-26.76-21.594-35.237-25.938-11.905-40.186-9.647c-14.246 2.256-26.76 9.925-35.237 21.593-17.499 24.087-12.14 57.922 11.947 75.423zm4.235-63.667c5.337-7.347 13.216-12.175 22.185-13.596 1.801-.285 3.602-.426 5.391-.426 7.12 0 14.04 2.235 19.911 6.501 15.166 11.019 18.54 32.321 7.521 47.487-11.019 15.165-32.321 18.54-47.487 7.521s-18.54-32.322-7.521-47.487z"/><path id="XMLID_1659_" d="m298.144 405.048c11.003 0 22.106-3.346 31.668-10.293 24.087-17.501 29.446-51.336 11.946-75.423-8.478-11.668-20.992-19.337-35.237-21.593-14.246-2.256-28.517 1.17-40.186 9.647s-19.337 20.992-21.594 35.237 1.17 28.517 9.647 40.186c10.554 14.526 27.042 22.239 43.756 22.239zm-20.054-81.481c7.346-5.338 16.328-7.497 25.301-6.075 8.969 1.421 16.848 6.249 22.185 13.596 11.019 15.166 7.645 36.468-7.521 47.487s-36.469 7.645-47.487-7.521-7.644-36.469 7.522-47.487z"/><path id="XMLID_1678_" d="m324.079 168.34c-13.715 4.457-24.874 13.987-31.42 26.836-6.547 12.849-7.698 27.478-3.242 41.193 4.457 13.715 13.987 24.874 26.836 31.42 7.705 3.926 16.049 5.912 24.453 5.912 5.611 0 11.25-.886 16.74-2.669 13.715-4.457 24.874-13.987 31.42-26.836 6.547-12.849 7.698-27.478 3.242-41.193-4.457-13.715-13.987-24.874-26.836-31.42-12.848-6.547-27.478-7.697-41.193-3.243zm32.114 21.063c8.089 4.122 14.089 11.146 16.894 19.781 2.806 8.634 2.081 17.844-2.041 25.933s-11.146 14.089-19.781 16.894-17.844 2.081-25.933-2.041-14.089-11.146-16.894-19.781c-2.806-8.634-2.081-17.844 2.041-25.933s11.146-14.089 19.781-16.894c3.457-1.124 7.006-1.681 10.539-1.681 5.29 0 10.543 1.25 15.394 3.722z"/><path id="XMLID_1713_" d="m263.292 256c0-18.909-15.383-34.292-34.292-34.292s-34.292 15.383-34.292 34.292 15.383 34.292 34.292 34.292 34.292-15.383 34.292-34.292zm-48.584 0c0-7.881 6.411-14.292 14.292-14.292s14.292 6.411 14.292 14.292-6.411 14.292-14.292 14.292-14.292-6.411-14.292-14.292z"/><path id="XMLID_1768_" d="m509.071 441.755c-11.308-11.308-26.342-17.535-42.334-17.535-15.991 0-31.025 6.228-42.333 17.535-14.99 14.99-34.92 23.245-56.118 23.245h-45.419c25.033-11.255 48.071-27.084 68.06-47.073 43.253-43.252 67.073-100.759 67.073-161.927 0-44.74-12.906-88.085-37.323-125.349-3.026-4.62-9.226-5.911-13.845-2.884-4.62 3.027-5.911 9.226-2.884 13.845 22.277 33.998 34.052 73.553 34.052 114.388 0 115.243-93.757 209-209 209s-209-93.757-209-209 93.757-209 209-209c40.904 0 80.516 11.812 114.552 34.16 4.616 3.032 10.816 1.747 13.848-2.871 3.031-4.617 1.746-10.816-2.871-13.848-37.306-24.494-80.714-37.441-125.529-37.441-61.168 0-118.675 23.82-161.927 67.073s-67.073 100.759-67.073 161.927 23.82 118.675 67.073 161.928c43.252 43.252 100.759 67.072 161.927 67.072h139.286c26.541 0 51.493-10.335 70.26-29.103 7.53-7.53 17.542-11.678 28.191-11.678s20.661 4.147 28.191 11.678c3.905 3.905 10.237 3.905 14.143 0 3.905-3.905 3.905-10.237 0-14.142z"/><path id="XMLID_1769_" d="m383.93 111.21c2.63 0 5.21-1.06 7.07-2.92 1.86-1.87 2.93-4.44 2.93-7.07 0-2.64-1.07-5.21-2.93-7.08-1.86-1.86-4.44-2.92-7.07-2.92s-5.21 1.06-7.07 2.92c-1.86 1.87-2.93 4.44-2.93 7.08 0 2.63 1.07 5.21 2.93 7.07s4.44 2.92 7.07 2.92z"/></g></g></svg>